{
	"patcher" : 	{
		"fileversion" : 1,
		"appversion" : 		{
			"major" : 8,
			"minor" : 2,
			"revision" : 1,
			"architecture" : "x64",
			"modernui" : 1
		}
,
		"classnamespace" : "dsp.gen",
		"rect" : [ 666.0, 327.0, 1049.0, 670.0 ],
		"bglocked" : 0,
		"openinpresentation" : 0,
		"default_fontsize" : 12.0,
		"default_fontface" : 0,
		"default_fontname" : "Arial",
		"gridonopen" : 1,
		"gridsize" : [ 15.0, 15.0 ],
		"gridsnaponopen" : 1,
		"objectsnaponopen" : 1,
		"statusbarvisible" : 2,
		"toolbarvisible" : 1,
		"lefttoolbarpinned" : 0,
		"toptoolbarpinned" : 0,
		"righttoolbarpinned" : 0,
		"bottomtoolbarpinned" : 0,
		"toolbars_unpinned_last_save" : 0,
		"tallnewobj" : 0,
		"boxanimatetime" : 200,
		"enablehscroll" : 1,
		"enablevscroll" : 1,
		"devicewidth" : 0.0,
		"description" : "",
		"digest" : "",
		"tags" : "",
		"style" : "",
		"subpatcher_template" : "",
		"assistshowspatchername" : 0,
		"boxes" : [ 			{
				"box" : 				{
					"id" : "obj-16",
					"maxclass" : "newobj",
					"numinlets" : 1,
					"numoutlets" : 0,
					"patching_rect" : [ 489.0, 649.0, 35.0, 22.0 ],
					"text" : "out 2"
				}

			}
, 			{
				"box" : 				{
					"id" : "obj-12",
					"linecount" : 2,
					"maxclass" : "newobj",
					"numinlets" : 0,
					"numoutlets" : 1,
					"outlettype" : [ "" ],
					"patching_rect" : [ 843.5, 55.0, 180.0, 35.0 ],
					"text" : "in 6 @comment power @min 0. @max 1."
				}

			}
, 			{
				"box" : 				{
					"id" : "obj-8",
					"maxclass" : "newobj",
					"numinlets" : 0,
					"numoutlets" : 1,
					"outlettype" : [ "" ],
					"patching_rect" : [ 561.5, 20.0, 156.0, 22.0 ],
					"text" : "in 4 @comment delaytimeR"
				}

			}
, 			{
				"box" : 				{
					"id" : "obj-7",
					"maxclass" : "newobj",
					"numinlets" : 0,
					"numoutlets" : 1,
					"outlettype" : [ "" ],
					"patching_rect" : [ 736.5, 13.5, 251.0, 22.0 ],
					"text" : "in 5 @comment feedback @min 0. @max 0.9"
				}

			}
, 			{
				"box" : 				{
					"id" : "obj-6",
					"maxclass" : "newobj",
					"numinlets" : 0,
					"numoutlets" : 1,
					"outlettype" : [ "" ],
					"patching_rect" : [ 395.5, 20.0, 154.0, 22.0 ],
					"text" : "in 3 @comment delaytimeL"
				}

			}
, 			{
				"box" : 				{
					"code" : "Delay dL(samplerate*5, 2);\r\nDelay dR(samplerate*5, 2);\r\nHistory hL(0);\r\nHistory hR(0);\r\nDelTimeL = mstosamps(in3);\r\nDelTimeR = mstosamps(in4);\r\n\r\nfbL = hL * in5;\r\nfbR = hR * in5;\r\n\r\ndL.write((in1 + fbL) * in6);\r\ndR.write((in2 + fbR) * in6);\r\n\r\n//leftdelay\r\ncf1 = (cycle(20)+ 1) * .5;\r\ncf2 = 1 - cf1;\r\ndtl1 = latch(DelTimeL, cf1 < .000001);\r\ndtl2 = latch(DelTimeL, cf2 < .000001);\r\ntapL1 = dL.read(dtl1);\r\ntapL2 = dL.read(dtl2);\r\noutputL = (tapL1 *cf1) + (tapL2 *cf2);\r\n\r\n//rightdelay\r\ncf3 = (cycle(20)+ 1) * .5;\r\ncf4 = 1 - cf3;\r\ndtr1 = latch(DelTimeR, cf3 <.000001);\r\ndtr2 = latch(DelTimeR,cf4 < .000001);\r\ntapR1 = dR.read(dtr1);\r\ntapR2 = dR.read(dtr2);\r\noutputR = (tapR1 *cf3) + (tapR2 *cf4);\r\ndacL =  outputL * in6;\r\ndacR = outputR * in6;\r\nout1 = dcblock(dacL);\r\nout2 = dcblock(dacR);\r\n\r\nhL = outputL;\r\nhR = outputR;",
					"fontface" : 0,
					"fontname" : "<Monospaced>",
					"fontsize" : 12.0,
					"id" : "obj-5",
					"maxclass" : "codebox",
					"numinlets" : 6,
					"numoutlets" : 2,
					"outlettype" : [ "", "" ],
					"patching_rect" : [ 46.0, 88.0, 727.0, 514.0 ]
				}

			}
, 			{
				"box" : 				{
					"id" : "obj-1",
					"maxclass" : "newobj",
					"numinlets" : 0,
					"numoutlets" : 1,
					"outlettype" : [ "" ],
					"patching_rect" : [ 46.0, 20.0, 167.0, 22.0 ],
					"text" : "in 1 @comment input signal L"
				}

			}
, 			{
				"box" : 				{
					"id" : "obj-2",
					"maxclass" : "newobj",
					"numinlets" : 0,
					"numoutlets" : 1,
					"outlettype" : [ "" ],
					"patching_rect" : [ 215.0, 20.0, 169.0, 22.0 ],
					"text" : "in 2 @comment input signal R"
				}

			}
, 			{
				"box" : 				{
					"id" : "obj-4",
					"maxclass" : "newobj",
					"numinlets" : 1,
					"numoutlets" : 0,
					"patching_rect" : [ 46.0, 636.0, 35.0, 22.0 ],
					"text" : "out 1"
				}

			}
 ],
		"lines" : [ 			{
				"patchline" : 				{
					"destination" : [ "obj-5", 0 ],
					"source" : [ "obj-1", 0 ]
				}

			}
, 			{
				"patchline" : 				{
					"destination" : [ "obj-5", 5 ],
					"source" : [ "obj-12", 0 ]
				}

			}
, 			{
				"patchline" : 				{
					"destination" : [ "obj-5", 1 ],
					"source" : [ "obj-2", 0 ]
				}

			}
, 			{
				"patchline" : 				{
					"destination" : [ "obj-16", 0 ],
					"source" : [ "obj-5", 1 ]
				}

			}
, 			{
				"patchline" : 				{
					"destination" : [ "obj-4", 0 ],
					"source" : [ "obj-5", 0 ]
				}

			}
, 			{
				"patchline" : 				{
					"destination" : [ "obj-5", 2 ],
					"source" : [ "obj-6", 0 ]
				}

			}
, 			{
				"patchline" : 				{
					"destination" : [ "obj-5", 4 ],
					"source" : [ "obj-7", 0 ]
				}

			}
, 			{
				"patchline" : 				{
					"destination" : [ "obj-5", 3 ],
					"source" : [ "obj-8", 0 ]
				}

			}
 ]
	}

}
